<svg viewBox="0 0 44 44" xmlns="http://www.w3.org/2000/svg">
  <defs>
    <linearGradient id="buildingGradient" x1="0%" y1="0%" x2="0%" y2="100%">
      <stop offset="0%" style="stop-color:#3B82F6;stop-opacity:1" />
      <stop offset="100%" style="stop-color:#1E40AF;stop-opacity:1" />
    </linearGradient>
    <linearGradient id="roofGradient" x1="0%" y1="0%" x2="0%" y2="100%">
      <stop offset="0%" style="stop-color:#1E40AF;stop-opacity:1" />
      <stop offset="100%" style="stop-color:#1E3A8A;stop-opacity:1" />
    </linearGradient>
  </defs>

  <!-- Base Building -->
  <rect x="8" y="20" width="28" height="20" rx="2" fill="url(#buildingGradient)" stroke="rgba(255,255,255,0.2)" stroke-width="0.5"/>

  <!-- Main Building with Columns -->
  <rect x="10" y="12" width="24" height="28" rx="2" fill="url(#buildingGradient)" stroke="rgba(255,255,255,0.2)" stroke-width="0.5"/>

  <!-- Roof/Pediment -->
  <path d="M8 16l14-6 14 6-2 4H10z" fill="url(#roofGradient)" stroke="rgba(255,255,255,0.2)" stroke-width="0.5"/>

  <!-- Columns -->
  <rect x="14" y="16" width="2" height="20" fill="rgba(255,255,255,0.9)"/>
  <rect x="18" y="16" width="2" height="20" fill="rgba(255,255,255,0.9)"/>
  <rect x="22" y="16" width="2" height="20" fill="rgba(255,255,255,0.9)"/>
  <rect x="26" y="16" width="2" height="20" fill="rgba(255,255,255,0.9)"/>
  <rect x="30" y="16" width="2" height="20" fill="rgba(255,255,255,0.9)"/>

  <!-- Windows -->
  <rect x="15" y="22" width="1.5" height="2" fill="rgba(30,64,175,0.8)"/>
  <rect x="19" y="22" width="1.5" height="2" fill="rgba(30,64,175,0.8)"/>
  <rect x="23" y="22" width="1.5" height="2" fill="rgba(30,64,175,0.8)"/>
  <rect x="27" y="22" width="1.5" height="2" fill="rgba(30,64,175,0.8)"/>

  <rect x="15" y="26" width="1.5" height="2" fill="rgba(30,64,175,0.8)"/>
  <rect x="19" y="26" width="1.5" height="2" fill="rgba(30,64,175,0.8)"/>
  <rect x="23" y="26" width="1.5" height="2" fill="rgba(30,64,175,0.8)"/>
  <rect x="27" y="26" width="1.5" height="2" fill="rgba(30,64,175,0.8)"/>

  <!-- Door -->
  <rect x="20" y="32" width="4" height="6" rx="2" fill="rgba(255,255,255,0.9)" stroke="rgba(30,64,175,0.3)"/>

  <!-- Flag Pole -->
  <rect x="36" y="8" width="1" height="16" fill="rgba(255,255,255,0.9)"/>
  <path d="M37 8h6l-1 3h1v2h-6z" fill="#EF4444"/>

  <!-- Steps -->
  <rect x="8" y="36" width="28" height="2" fill="rgba(30,64,175,0.3)"/>
  <rect x="10" y="38" width="24" height="2" fill="rgba(30,64,175,0.2)"/>
</svg>